<svg width="24" height="24" viewBox="0 0 24 24" fill="none"
     xmlns="http://www.w3.org/2000/svg"
     xmlns:xlink="http://www.w3.org/1999/xlink">
  <defs>
    <mask id="mask0_4668_1730" style="mask-type:alpha" maskUnits="userSpaceOnUse" x="3" y="2" width="18" height="21">
      <path d="M20.7169 17.4056C20.6898 17.4788 20.2661 18.9119 19.2321 20.3916C18.3406 21.6718 17.4151 22.9487 15.9541 22.972C14.5201 22.9986 14.0591 22.1373 12.4218 22.1373C10.7844 22.1373 10.2691 22.9454 8.91317 22.9986C7.50635 23.0518 6.43174 21.6153 5.5334 20.3384C3.69606 17.7348 2.29263 12.9731 4.17743 9.76099C5.11305 8.1649 6.78768 7.15404 8.60468 7.12744C9.98778 7.10084 11.2929 8.03854 12.1404 8.03854C12.9879 8.03854 14.571 6.9113 16.2388 7.07756C16.9371 7.10749 18.8965 7.35355 20.1542 9.15913C20.0559 9.22231 17.8151 10.4992 17.8389 13.156C17.8694 16.3349 20.683 17.3923 20.7135 17.4056H20.7169ZM15.1473 5.35179C15.8964 4.46396 16.3981 3.22699 16.2625 2C15.1845 2.0399 13.8794 2.70494 13.1099 3.58944C12.415 4.37418 11.8082 5.63111 11.9743 6.83815C13.1743 6.93125 14.4049 6.23962 15.1506 5.35179H15.1473Z" fill="black"/>
    </mask>

    <filter id="filter0_f_4668_1730" x="-5.37878" y="-5.04712" width="49.8822" height="48.1663" filterUnits="userSpaceOnUse" color-interpolation-filters="sRGB">
      <feFlood flood-opacity="0" result="BackgroundImageFix"/>
      <feBlend mode="normal" in="SourceGraphic" in2="BackgroundImageFix" result="shape"/>
      <feGaussianBlur stdDeviation="2" result="effect1_foregroundBlur_4668_1730"/>
    </filter>
    <filter id="filter1_f_4668_1730" x="-1.47449" y="3.36096" width="42.4314" height="30.4846" filterUnits="userSpaceOnUse" color-interpolation-filters="sRGB">
      <feFlood flood-opacity="0" result="BackgroundImageFix"/>
      <feBlend mode="normal" in="SourceGraphic" in2="BackgroundImageFix" result="shape"/>
      <feGaussianBlur stdDeviation="1" result="effect1_foregroundBlur_4668_1730"/>
    </filter>
    <filter id="filter2_f_4668_1730" x="-1.01575" y="6.37524" width="34.8276" height="28.0167" filterUnits="userSpaceOnUse" color-interpolation-filters="sRGB">
      <feFlood flood-opacity="0" result="BackgroundImageFix"/>
      <feBlend mode="normal" in="SourceGraphic" in2="BackgroundImageFix" result="shape"/>
      <feGaussianBlur stdDeviation="1" result="effect1_foregroundBlur_4668_1730"/>
    </filter>
    <filter id="filter3_f_4668_1730" x="-2.01575" y="6.37524" width="38.8276" height="32.0167" filterUnits="userSpaceOnUse" color-interpolation-filters="sRGB">
      <feFlood flood-opacity="0" result="BackgroundImageFix"/>
      <feBlend mode="normal" in="SourceGraphic" in2="BackgroundImageFix" result="shape"/>
      <feGaussianBlur stdDeviation="2" result="effect1_foregroundBlur_4668_1730"/>
    </filter>
    <filter id="filter4_f_4668_1730" x="-0.79248" y="6.40015" width="38.8276" height="32.0167" filterUnits="userSpaceOnUse" color-interpolation-filters="sRGB">
      <feFlood flood-opacity="0" result="BackgroundImageFix"/>
      <feBlend mode="normal" in="SourceGraphic" in2="BackgroundImageFix" result="shape"/>
      <feGaussianBlur stdDeviation="2" result="effect1_foregroundBlur_4668_1730"/>
    </filter>
    <filter id="filter5_f_4668_1730" x="1.98425" y="10.3752" width="34.8276" height="28.0167" filterUnits="userSpaceOnUse" color-interpolation-filters="sRGB">
      <feFlood flood-opacity="0" result="BackgroundImageFix"/>
      <feBlend mode="normal" in="SourceGraphic" in2="BackgroundImageFix" result="shape"/>
      <feGaussianBlur stdDeviation="1" result="effect1_foregroundBlur_4668_1730"/>
    </filter>
  </defs>

  <path d="M20.7169 17.4056C20.6898 17.4788 20.2661 18.9119 19.2321 20.3916C18.3406 21.6718 17.4151 22.9487 15.9541 22.972C14.5201 22.9986 14.0591 22.1373 12.4218 22.1373C10.7844 22.1373 10.2691 22.9454 8.91317 22.9986C7.50635 23.0518 6.43174 21.6153 5.5334 20.3384C3.69606 17.7348 2.29263 12.9731 4.17743 9.76099C5.11305 8.1649 6.78768 7.15404 8.60468 7.12744C9.98778 7.10084 11.2929 8.03854 12.1404 8.03854C12.9879 8.03854 14.571 6.9113 16.2388 7.07756C16.9371 7.10749 18.8965 7.35355 20.1542 9.15913C20.0559 9.22231 17.8151 10.4992 17.8389 13.156C17.8694 16.3349 20.683 17.3923 20.7135 17.4056H20.7169ZM15.1473 5.35179C15.8964 4.46396 16.3981 3.22699 16.2625 2C15.1845 2.0399 13.8794 2.70494 13.1099 3.58944C12.415 4.37418 11.8082 5.63111 11.9743 6.83815C13.1743 6.93125 14.4049 6.23962 15.1506 5.35179H15.1473Z" fill="black"/>

  <g mask="url(#mask0_4668_1730)">
    <g filter="url(#filter0_f_4668_1730)">
      <path d="M18.6418 0.144626C18.8361 0.099188 22.5358 -0.982908 26.953 -1.03586C30.7717 -1.08697 34.6166 -1.07332 36.1331 1.50403C51.8157 27.9541 21.4302 55.27 5.82408 27.4639C4.9753 25.9516 0.813626 24.5725 -0.476797 21.383C-1.10779 20.0985 -2.50781 16.2864 0.359037 11.7262C0.601882 11.8206 5.76418 14.1813 11.8123 10.7312C19.0467 6.59933 18.6453 0.222181 18.6452 0.150678L18.6418 0.144626Z" fill="#125EE8" fill-opacity="0.65"/>
    </g>
    <g filter="url(#filter1_f_4668_1730)">
      <path d="M22.6687 7.25531C22.8517 7.20779 26.3876 6.16499 30.314 5.70885C33.7096 5.31111 37.1131 4.95209 37.8426 6.4481C45.4349 21.7894 12.0035 42.0877 4.80201 25.8756C4.41034 24.9939 1.05162 24.5138 0.668283 22.6064C0.415291 21.8489 0.0832121 19.5556 3.70996 16.3779C3.90263 16.4148 7.91402 17.4242 14.0949 14.649C21.4894 11.3264 22.6534 7.30435 22.6703 7.25884L22.6687 7.25531Z" fill="#76D9FF"/>
    </g>
    <g filter="url(#filter2_f_4668_1730)">
      <path d="M17.8533 10.6974C17.9999 10.6463 20.8192 9.54987 24.0219 8.93796C26.7914 8.40597 29.5715 7.90694 30.329 9.15724C38.1895 21.9727 12.606 41.3462 4.97954 27.7578C4.56476 27.0187 1.73556 26.7912 1.22227 25.1667C0.935033 24.5271 0.4245 22.5668 3.0996 19.6232C3.26286 19.6443 6.68663 20.2922 11.517 17.554C17.2956 14.2758 17.8456 10.7406 17.8549 10.7004L17.8533 10.6974Z" fill="#FAF30E"/>
    </g>
    <g filter="url(#filter3_f_4668_1730)">
      <path d="M18.8533 12.6974C18.9999 12.6463 21.8192 11.5499 25.0219 10.938C27.7914 10.406 30.5715 9.90694 31.329 11.1572C39.1895 23.9727 13.606 43.3462 5.97954 29.7578C5.56476 29.0187 2.73556 28.7912 2.22227 27.1667C1.93503 26.5271 1.4245 24.5668 4.0996 21.6232C4.26286 21.6443 7.68663 22.2922 12.517 19.554C18.2956 16.2758 18.8456 12.7406 18.8549 12.7004L18.8533 12.6974Z" fill="#D7B132"/>
    </g>
    <g filter="url(#filter4_f_4668_1730)">
      <path d="M20.0765 12.7224C20.2231 12.6712 23.0424 11.5748 26.2452 10.9629C29.0147 10.4309 31.7947 9.93184 32.5522 11.1821C40.4127 23.9976 14.8293 43.3711 7.20281 29.7827C6.78802 29.0436 3.95883 28.8161 3.44554 27.1916C3.1583 26.552 2.64777 24.5917 5.32287 21.6481C5.48613 21.6692 8.9099 22.3171 13.7403 19.5789C19.5188 16.3007 20.0689 12.7655 20.0782 12.7253L20.0765 12.7224Z" fill="#DF7102"/>
    </g>
    <g filter="url(#filter5_f_4668_1730)">
      <path d="M20.8533 14.6974C20.9999 14.6463 23.8192 13.5499 27.0219 12.938C29.7914 12.406 32.5715 11.9069 33.329 13.1572C41.1895 25.9727 15.606 45.3462 7.97954 31.7578C7.56476 31.0187 4.73556 30.7912 4.22227 29.1667C3.93503 28.5271 3.4245 26.5668 6.0996 23.6232C6.26286 23.6443 9.68663 24.2922 14.517 21.554C20.2956 18.2758 20.8456 14.7406 20.8549 14.7004L20.8533 14.6974Z" fill="#D13A00"/>
    </g>
  </g>
</svg>
